<svg width="500" height="1000"  xmlns="http://www.w3.org/2000/svg">
<g id="Group 1">
<path id="Vector 1" d="M64 143C64 135.597 61.1228 126.021 57.5 119.5C55.0944 115.17 55 106.991 55 102C55 90.5841 54.8824 81.9904 63.0556 73C70.6448 64.6518 80.6048 57.4843 90.4444 52.0556C99.778 46.906 109.631 47.8848 120 48C134.204 48.1578 149.311 53.8226 162 60C170.472 64.1247 180.385 66.6644 188.444 71.5C198.028 77.2504 194.061 91.5232 190.222 100C187.948 105.023 186.986 110.897 183 115C180.329 117.75 179.22 120.404 177.5 123.5C175.053 127.905 172 133.904 172 139" stroke="#431C1C" stroke-width="18" stroke-linecap="round" stroke-linejoin="round"/>
<path id="Vector 2" d="M70 160C68.8072 167.455 67.3624 178.191 70 185.444C71.3849 189.253 73.9143 192.48 75.7778 196C76.5281 197.417 77.9093 197.263 78.7778 199C80.1732 201.791 82.4613 204.203 84.5 206.556C88.3223 210.966 92.2805 215.275 96 219.778C100.001 224.621 102.576 229.308 106 234.444C107.827 237.186 112.823 244.81 113 248C113.184 251.32 116.336 252.269 118.5 254C119.835 255.068 120.601 257.852 121.056 259.444C121.263 260.169 124.298 262.166 125 263C125.386 263.459 131 272.167 131 270" stroke="#431C1C" stroke-width="18" stroke-linecap="round" stroke-linejoin="round"/>
<path id="Vector 3" d="M176 126C176 131.018 173.671 141 181 141" stroke="#431C1C" stroke-width="18" stroke-linecap="round" stroke-linejoin="round"/>
<path id="Vector 4" d="M85 150C93.5768 148.326 101.161 143.909 109.5 142.056C111.975 141.506 113.784 141 116.5 141C121.357 141 111.888 142.371 110 143" stroke="#431C1C" stroke-width="18" stroke-linecap="round" stroke-linejoin="round"/>
<path id="Vector 5" d="M58 182C47.9483 173.863 45.7188 163.647 41 152.222C37.9881 144.93 32.5778 138.957 29 132C25.5273 125.247 24.9841 116.062 23.7778 108.556C22.0206 97.6217 23 86.077 23 75C23 64.7261 23.4584 56.7662 30.5 48.5C38.5241 39.0804 48.8605 33.0154 60.2222 28.2222C86.0221 17.3379 113.156 9 141.444 9C151.421 9 157.498 11.8484 165.5 18.1111C178.46 28.2534 189.734 41.0666 205.389 47.4444C216.605 52.014 217.808 62.2313 220.5 73C223.399 84.5958 225.01 99.7853 222.222 111.556C220.428 119.133 219.36 127.238 215 133.778C211.845 138.51 208.579 142.694 205.556 147.444C203.338 150.93 198.112 154.201 195.5 149.5C192.951 144.911 189.709 151 187 151" stroke="#431C1C" stroke-width="18" stroke-linecap="round" stroke-linejoin="round"/>
<path id="Vector 6" d="M146 278C154.982 291.608 163.156 303 180.722 303C201.628 303 212.137 288.308 217.222 270C217.883 267.621 219.852 266.583 220 264C220.177 260.898 221.234 257.835 221.778 254.778C222.827 248.878 222.435 241.535 220.5 235.944C218.108 229.034 214.243 223.121 208 220" stroke="#431C1C" stroke-width="18" stroke-linecap="round" stroke-linejoin="round"/>
<path id="Vector 7" d="M133 261C121.422 294.446 89.5223 306.107 57.1667 311.5C50.2574 312.652 44.9246 314.13 38.7778 318C33.0861 321.584 17 323.3 17 331C17 336.933 11 341.19 11 347" stroke="#431C1C" stroke-width="18" stroke-linecap="round" stroke-linejoin="round"/>
<path id="Vector 8" d="M11 347C11 353.954 11.2842 360.687 10.0556 367.444C9.38 371.16 9 375.205 9 379" stroke="#431C1C" stroke-width="18" stroke-linecap="round" stroke-linejoin="round"/>
<path id="Vector 9" d="M27 334C33.9914 334 41.0112 333.823 48 334C56.883 334.225 65.2566 336.858 73.9444 337.944C77.061 338.334 84.4469 339.106 86 336" stroke="#431C1C" stroke-width="18" stroke-linecap="round" stroke-linejoin="round"/>
<path id="Vector 10" d="M89 170C94.2299 157.506 108.587 149 122 149C126.311 149 132.087 149.587 135.778 152C138.494 153.776 142.043 157.086 140 153" stroke="#431C1C" stroke-width="18" stroke-linecap="round" stroke-linejoin="round"/>
<path id="Vector 11" d="M112 165C113.013 170.789 110.317 169.952 109 166" stroke="#431C1C" stroke-width="18" stroke-linecap="round" stroke-linejoin="round"/>
<path id="Vector 12" d="M151 137C157.628 131.792 163.971 129.514 171 126" stroke="#431C1C" stroke-width="18" stroke-linecap="round" stroke-linejoin="round"/>
<path id="Vector 13" d="M156 154C161.617 153.86 163 152.279 163 147" stroke="#431C1C" stroke-width="18" stroke-linecap="round" stroke-linejoin="round"/>
<path id="Vector 14" d="M151 189C151 197.456 150.821 204.554 149.056 212.5C146.825 222.538 165.013 218.126 169.444 214.5C171.859 212.524 180.628 208.164 181 205C181.354 201.994 183.163 200.163 180.5 197.5C178.248 195.248 175.32 193 172 193" stroke="#431C1C" stroke-width="18" stroke-linecap="round" stroke-linejoin="round"/>
<path id="Vector 15" d="M152 267C152 261.561 150.417 253.023 153 248C154.678 244.737 159.198 241.944 162.222 240C171.826 233.826 180.805 235 191.944 235C195.744 235 199.273 234 202.944 234C206.213 234 208.289 237.289 210.444 239.444C211.82 240.82 215 241.388 215 243.5C215 246 215 248.5 215 251" stroke="#431C1C" stroke-width="18" stroke-linecap="round" stroke-linejoin="round"/>
<path id="Vector 16" d="M218 331C220.318 341.561 232.777 344.457 242.556 345C248.155 345.311 253.337 347.663 258 343" stroke="#431C1C" stroke-width="18" stroke-linecap="round" stroke-linejoin="round"/>
<path id="Vector 17" d="M164 327C153.903 337.097 144.715 349.042 132.778 357C126.772 361.004 119.7 360.15 114 363" stroke="#431C1C" stroke-width="18" stroke-linecap="round" stroke-linejoin="round"/>
<path id="Vector 18" d="M212 191C217.519 191 223.037 191 228.556 191C237.106 191 244.009 193.987 252.222 195.778C264.947 198.552 279.327 200.207 290.944 206.5C297.797 210.212 301.342 213.325 303.5 221C305.136 226.815 308 244.597 308 238.556C308 235.078 305.237 228.053 304 224.778C302.885 221.825 301.314 215.903 297.5 215.056C290.92 213.593 282.909 209.955 277 207" stroke="#431C1C" stroke-width="18" stroke-linecap="round" stroke-linejoin="round"/>
<path id="Vector 19" d="M290 268C290 257.542 289.531 246.947 290.111 236.5C291.054 219.529 293.801 202.903 294 185.778C294.091 177.986 293.072 171.176 292.056 163.556C291.485 159.275 291.715 154.795 290.944 150.556C290.37 147.396 288.367 144.119 288 141C287.309 135.128 279.057 133.946 275.611 130.5C273.425 128.314 280.448 134.549 282 137.222C286.031 144.165 289.465 151.474 292.778 158.778C299.228 172.999 303.061 188.119 305.556 203.444C308.583 222.042 313.614 244.518 303.778 262.222C302.709 264.145 301.233 266.504 300.944 268.667C300.801 269.739 299.339 276.422 298.778 273.333C296.808 262.498 298.155 250.952 297.944 240C297.61 222.583 295.162 205.978 293.056 188.778C290.923 171.358 282.74 155.48 275 140C272.818 135.637 270.817 131.706 267.5 128.389C264.94 125.829 260.566 123.132 259 120" stroke="#431C1C" stroke-width="18" stroke-linecap="round" stroke-linejoin="round"/>
<path id="Vector 20" d="M38 73C35.5121 86.3723 31.2782 103.384 34.2222 117C35.7139 123.899 40.2574 128.329 43 134.5C45.4521 140.017 54 145.565 54 152.5C54 154.667 54 156.833 54 159C54 165.84 53.9194 152.194 53.7778 150.778C51.678 129.78 49.5681 108.807 45.0556 88.5C43.431 81.1896 45.0586 73.3456 43.2222 66C41.4679 58.9825 41.6447 54.4664 47.1667 48.9444C56.713 39.3981 68.315 33.1259 81.4445 30.5C86.062 29.5765 90.2975 29 95 29C96.7135 29 96.3923 28.8468 94.7778 29.2222C89.878 30.3617 84.99 33.3779 80.8889 36.1667C68.9227 44.3037 35.769 72.348 47.6667 64.1111C57.4871 57.3124 65.6281 49.0567 76.5 43.5C87.1443 38.0596 98.1432 35.5735 110.056 35.0556C124.405 34.4316 136.956 35.387 150.333 40.7778C155.793 42.9779 172.692 47.9913 167.333 45.5556C149.173 37.3009 130.995 24 110 24C106.667 24 103.333 24 100 24C98.5422 24 96.2919 24 99.4445 24C106.124 24 112.824 23.8436 119.5 24.0556C140.732 24.7296 172.679 30.0562 184 51C186.368 55.3801 188.705 59.4008 190.556 64.1111C193.214 70.8771 199.95 76.3444 204.5 81.9444C209.761 88.4193 215.587 98.6708 212.389 107.556C210.005 114.177 205.823 119.823 202.222 125.778C200.684 128.322 198.131 129.444 196.778 132C195.973 133.52 194.428 135.825 194.056 137.5C193.757 138.843 194 128.198 194 125.778C194 116.109 196.584 108.034 202.444 100.5C207.715 93.7237 202.476 81.8977 198.389 76.3889C192.441 68.3728 190.29 55.337 179.778 52.2222C177.077 51.422 173.376 52 170.556 52C162.36 52 176.571 56.0678 178.167 56.5C186.444 58.7417 195.445 62.1445 204 63C207.733 63.3733 208.464 67.5571 209.444 70.4444C210.982 74.9718 213 79.6341 213 84.5C213 85.8148 213.146 85.5518 212.944 84.4444C212.344 81.1425 209.461 78.9814 207.222 76.7778C195.976 65.7069 184.32 53.007 170.167 45.7222C155.012 37.9218 137.326 37 120.611 37C98.5991 37 76.896 38.7305 56.2222 47C43.2757 52.1786 37.9997 67.7224 26.0556 74.8889C15.2441 81.3757 25.6889 65.8104 28.2222 63C29.9379 61.0967 44.9348 45.677 47.4445 47.1111C49.4802 48.2744 38.9676 67.4327 38.2222 70C34.6848 82.1843 33.2686 97.7747 38.2222 109.778C41.8494 118.567 47.4562 126.591 50.4445 135.556C51.7622 139.509 54.6731 160 48 160" stroke="#431C1C" stroke-width="18" stroke-linecap="round" stroke-linejoin="round"/>
</g>
</svg>
